<mxfile host="app.diagrams.net" modified="2021-06-15T07:46:50.466Z" agent="5.0 (Macintosh; Intel Mac OS X 10_15_7) AppleWebKit/537.36 (KHTML, like Gecko) Chrome/91.0.4472.101 Safari/537.36" etag="ceYJEuO5aVwJU-6lCbkE" version="14.7.7" type="github">
  <diagram id="eovw46NMKYzmCpCr1AMo" name="Page-1">
    <mxGraphModel dx="1426" dy="769" grid="1" gridSize="10" guides="1" tooltips="1" connect="1" arrows="1" fold="1" page="1" pageScale="1" pageWidth="1654" pageHeight="2336" math="0" shadow="0">
      <root>
        <mxCell id="0" />
        <mxCell id="1" parent="0" />
        <mxCell id="_q4OyWZm5zjV7-XpQhUj-1" value="" style="rounded=0;whiteSpace=wrap;html=1;" vertex="1" parent="1">
          <mxGeometry x="400" y="510" width="760" height="70" as="geometry" />
        </mxCell>
        <mxCell id="_q4OyWZm5zjV7-XpQhUj-2" value="Windows" style="rounded=0;whiteSpace=wrap;html=1;" vertex="1" parent="1">
          <mxGeometry x="440" y="525" width="110" height="40" as="geometry" />
        </mxCell>
        <mxCell id="_q4OyWZm5zjV7-XpQhUj-3" value="MAc" style="rounded=0;whiteSpace=wrap;html=1;" vertex="1" parent="1">
          <mxGeometry x="610" y="525" width="110" height="40" as="geometry" />
        </mxCell>
        <mxCell id="_q4OyWZm5zjV7-XpQhUj-4" value="Web" style="rounded=0;whiteSpace=wrap;html=1;" vertex="1" parent="1">
          <mxGeometry x="810" y="525" width="110" height="40" as="geometry" />
        </mxCell>
        <mxCell id="_q4OyWZm5zjV7-XpQhUj-5" value="Linux(待定)" style="rounded=0;whiteSpace=wrap;html=1;" vertex="1" parent="1">
          <mxGeometry x="1010" y="525" width="110" height="40" as="geometry" />
        </mxCell>
        <mxCell id="_q4OyWZm5zjV7-XpQhUj-7" value="electron(node.js)" style="rounded=0;whiteSpace=wrap;html=1;" vertex="1" parent="1">
          <mxGeometry x="400" y="630" width="760" height="70" as="geometry" />
        </mxCell>
        <mxCell id="_q4OyWZm5zjV7-XpQhUj-12" value="" style="rounded=0;whiteSpace=wrap;html=1;" vertex="1" parent="1">
          <mxGeometry x="400" y="380" width="760" height="70" as="geometry" />
        </mxCell>
        <mxCell id="_q4OyWZm5zjV7-XpQhUj-13" value="Vue/Webpack" style="rounded=0;whiteSpace=wrap;html=1;" vertex="1" parent="1">
          <mxGeometry x="410" y="395" width="110" height="40" as="geometry" />
        </mxCell>
        <mxCell id="_q4OyWZm5zjV7-XpQhUj-14" value="公共组件库" style="rounded=0;whiteSpace=wrap;html=1;" vertex="1" parent="1">
          <mxGeometry x="530" y="395" width="110" height="40" as="geometry" />
        </mxCell>
        <mxCell id="_q4OyWZm5zjV7-XpQhUj-16" value="Websocket" style="rounded=0;whiteSpace=wrap;html=1;" vertex="1" parent="1">
          <mxGeometry x="900" y="395" width="110" height="40" as="geometry" />
        </mxCell>
        <mxCell id="_q4OyWZm5zjV7-XpQhUj-17" value="" style="rounded=0;whiteSpace=wrap;html=1;" vertex="1" parent="1">
          <mxGeometry x="400" y="260" width="760" height="70" as="geometry" />
        </mxCell>
        <mxCell id="_q4OyWZm5zjV7-XpQhUj-18" value="主进程" style="rounded=0;whiteSpace=wrap;html=1;" vertex="1" parent="1">
          <mxGeometry x="410" y="275" width="110" height="40" as="geometry" />
        </mxCell>
        <mxCell id="_q4OyWZm5zjV7-XpQhUj-19" value="主渲染进程" style="rounded=0;whiteSpace=wrap;html=1;" vertex="1" parent="1">
          <mxGeometry x="560" y="275" width="110" height="40" as="geometry" />
        </mxCell>
        <mxCell id="_q4OyWZm5zjV7-XpQhUj-20" value="其他渲染进程" style="rounded=0;whiteSpace=wrap;html=1;" vertex="1" parent="1">
          <mxGeometry x="725" y="275" width="110" height="40" as="geometry" />
        </mxCell>
        <mxCell id="_q4OyWZm5zjV7-XpQhUj-21" value="browser" style="rounded=0;whiteSpace=wrap;html=1;" vertex="1" parent="1">
          <mxGeometry x="1040" y="275" width="110" height="40" as="geometry" />
        </mxCell>
        <mxCell id="_q4OyWZm5zjV7-XpQhUj-22" value="" style="rounded=0;whiteSpace=wrap;html=1;" vertex="1" parent="1">
          <mxGeometry x="400" y="130" width="760" height="70" as="geometry" />
        </mxCell>
        <mxCell id="_q4OyWZm5zjV7-XpQhUj-23" value="路由" style="rounded=0;whiteSpace=wrap;html=1;" vertex="1" parent="1">
          <mxGeometry x="410" y="145" width="110" height="40" as="geometry" />
        </mxCell>
        <mxCell id="_q4OyWZm5zjV7-XpQhUj-24" value="伪协议" style="rounded=0;whiteSpace=wrap;html=1;" vertex="1" parent="1">
          <mxGeometry x="530" y="145" width="110" height="40" as="geometry" />
        </mxCell>
        <mxCell id="_q4OyWZm5zjV7-XpQhUj-25" value="jsbridge" style="rounded=0;whiteSpace=wrap;html=1;" vertex="1" parent="1">
          <mxGeometry x="650" y="145" width="110" height="40" as="geometry" />
        </mxCell>
        <mxCell id="_q4OyWZm5zjV7-XpQhUj-26" value="鉴权" style="rounded=0;whiteSpace=wrap;html=1;" vertex="1" parent="1">
          <mxGeometry x="772" y="145" width="110" height="40" as="geometry" />
        </mxCell>
        <mxCell id="_q4OyWZm5zjV7-XpQhUj-27" value="页面展示" style="rounded=0;whiteSpace=wrap;html=1;" vertex="1" parent="1">
          <mxGeometry x="400" y="20" width="760" height="70" as="geometry" />
        </mxCell>
        <mxCell id="_q4OyWZm5zjV7-XpQhUj-32" value="&lt;span style=&quot;color: rgb(0 , 0 , 0) ; font-family: &amp;#34;helvetica&amp;#34; ; font-size: 24px ; font-style: normal ; font-weight: 400 ; letter-spacing: normal ; text-align: center ; text-indent: 0px ; text-transform: none ; word-spacing: 0px ; background-color: rgb(248 , 249 , 250) ; display: inline ; float: none&quot;&gt;基础工具&lt;/span&gt;" style="text;whiteSpace=wrap;html=1;" vertex="1" parent="1">
          <mxGeometry x="210" y="400" width="120" height="30" as="geometry" />
        </mxCell>
        <mxCell id="_q4OyWZm5zjV7-XpQhUj-33" value="&lt;span style=&quot;color: rgb(0 , 0 , 0) ; font-family: &amp;#34;helvetica&amp;#34; ; font-size: 24px ; font-style: normal ; font-weight: 400 ; letter-spacing: normal ; text-align: center ; text-indent: 0px ; text-transform: none ; word-spacing: 0px ; background-color: rgb(248 , 249 , 250) ; display: inline ; float: none&quot;&gt;多进程&lt;/span&gt;" style="text;whiteSpace=wrap;html=1;" vertex="1" parent="1">
          <mxGeometry x="210" y="280" width="120" height="30" as="geometry" />
        </mxCell>
        <mxCell id="_q4OyWZm5zjV7-XpQhUj-34" value="&lt;span style=&quot;color: rgb(0 , 0 , 0) ; font-family: &amp;#34;helvetica&amp;#34; ; font-size: 24px ; font-style: normal ; font-weight: 400 ; letter-spacing: normal ; text-align: center ; text-indent: 0px ; text-transform: none ; word-spacing: 0px ; background-color: rgb(248 , 249 , 250) ; display: inline ; float: none&quot;&gt;业务&lt;/span&gt;" style="text;whiteSpace=wrap;html=1;" vertex="1" parent="1">
          <mxGeometry x="210" y="150" width="120" height="30" as="geometry" />
        </mxCell>
        <mxCell id="_q4OyWZm5zjV7-XpQhUj-35" value="&lt;div style=&quot;text-align: center&quot;&gt;&lt;span style=&quot;font-size: 24px&quot;&gt;&lt;font face=&quot;helvetica&quot;&gt;表现&lt;/font&gt;&lt;/span&gt;&lt;/div&gt;" style="text;whiteSpace=wrap;html=1;" vertex="1" parent="1">
          <mxGeometry x="210" y="40" width="120" height="30" as="geometry" />
        </mxCell>
        <mxCell id="_q4OyWZm5zjV7-XpQhUj-36" value="基础工具库" style="rounded=0;whiteSpace=wrap;html=1;" vertex="1" parent="1">
          <mxGeometry x="650" y="395" width="110" height="40" as="geometry" />
        </mxCell>
        <mxCell id="_q4OyWZm5zjV7-XpQhUj-37" value="C++&amp;nbsp; addon" style="rounded=0;whiteSpace=wrap;html=1;" vertex="1" parent="1">
          <mxGeometry x="772" y="395" width="110" height="40" as="geometry" />
        </mxCell>
        <mxCell id="_q4OyWZm5zjV7-XpQhUj-38" value="webview进程" style="rounded=0;whiteSpace=wrap;html=1;" vertex="1" parent="1">
          <mxGeometry x="882" y="275" width="110" height="40" as="geometry" />
        </mxCell>
        <mxCell id="_q4OyWZm5zjV7-XpQhUj-39" value="&lt;div style=&quot;text-align: center&quot;&gt;&lt;font face=&quot;helvetica&quot;&gt;&lt;span style=&quot;font-size: 24px&quot;&gt;系统支持&lt;/span&gt;&lt;/font&gt;&lt;/div&gt;" style="text;whiteSpace=wrap;html=1;" vertex="1" parent="1">
          <mxGeometry x="210" y="530" width="120" height="30" as="geometry" />
        </mxCell>
        <mxCell id="_q4OyWZm5zjV7-XpQhUj-40" value="&lt;span style=&quot;color: rgb(0 , 0 , 0) ; font-family: &amp;#34;helvetica&amp;#34; ; font-size: 24px ; font-style: normal ; font-weight: 400 ; letter-spacing: normal ; text-align: center ; text-indent: 0px ; text-transform: none ; word-spacing: 0px ; background-color: rgb(248 , 249 , 250) ; display: inline ; float: none&quot;&gt;开发框架&lt;/span&gt;" style="text;whiteSpace=wrap;html=1;" vertex="1" parent="1">
          <mxGeometry x="210" y="650" width="120" height="30" as="geometry" />
        </mxCell>
        <mxCell id="_q4OyWZm5zjV7-XpQhUj-42" value="sentry" style="rounded=0;whiteSpace=wrap;html=1;" vertex="1" parent="1">
          <mxGeometry x="1030" y="395" width="110" height="40" as="geometry" />
        </mxCell>
        <mxCell id="_q4OyWZm5zjV7-XpQhUj-43" value="事件" style="rounded=0;whiteSpace=wrap;html=1;" vertex="1" parent="1">
          <mxGeometry x="900" y="145" width="110" height="40" as="geometry" />
        </mxCell>
        <mxCell id="_q4OyWZm5zjV7-XpQhUj-44" value="业务" style="rounded=0;whiteSpace=wrap;html=1;" vertex="1" parent="1">
          <mxGeometry x="1030" y="145" width="110" height="40" as="geometry" />
        </mxCell>
        <mxCell id="_q4OyWZm5zjV7-XpQhUj-46" value="" style="rounded=0;whiteSpace=wrap;html=1;" vertex="1" parent="1">
          <mxGeometry x="1190" y="440" width="150" height="250" as="geometry" />
        </mxCell>
        <mxCell id="_q4OyWZm5zjV7-XpQhUj-47" value="Jest" style="rounded=0;whiteSpace=wrap;html=1;" vertex="1" parent="1">
          <mxGeometry x="1205" y="610" width="120" height="60" as="geometry" />
        </mxCell>
        <mxCell id="_q4OyWZm5zjV7-XpQhUj-48" value="Selenium" style="rounded=0;whiteSpace=wrap;html=1;" vertex="1" parent="1">
          <mxGeometry x="1205" y="520" width="120" height="60" as="geometry" />
        </mxCell>
        <mxCell id="_q4OyWZm5zjV7-XpQhUj-49" value="" style="rounded=0;whiteSpace=wrap;html=1;" vertex="1" parent="1">
          <mxGeometry x="1190" y="20" width="150" height="410" as="geometry" />
        </mxCell>
        <mxCell id="_q4OyWZm5zjV7-XpQhUj-50" value="开发工具&lt;br&gt;VS2015&lt;br&gt;VSCOE" style="rounded=0;whiteSpace=wrap;html=1;" vertex="1" parent="1">
          <mxGeometry x="1205" y="90" width="120" height="90" as="geometry" />
        </mxCell>
        <mxCell id="_q4OyWZm5zjV7-XpQhUj-51" value="开发语言&lt;br&gt;JavaScript、C++&lt;br&gt;HTML" style="rounded=0;whiteSpace=wrap;html=1;" vertex="1" parent="1">
          <mxGeometry x="1205" y="210" width="120" height="100" as="geometry" />
        </mxCell>
        <mxCell id="_q4OyWZm5zjV7-XpQhUj-52" value="运行环境&lt;br&gt;V8、NODEJS" style="rounded=0;whiteSpace=wrap;html=1;" vertex="1" parent="1">
          <mxGeometry x="1205" y="330" width="120" height="80" as="geometry" />
        </mxCell>
        <mxCell id="_q4OyWZm5zjV7-XpQhUj-57" value="测试工具" style="text;html=1;align=center;verticalAlign=middle;resizable=0;points=[];autosize=1;strokeColor=none;" vertex="1" parent="1">
          <mxGeometry x="1230" y="470" width="60" height="20" as="geometry" />
        </mxCell>
        <mxCell id="_q4OyWZm5zjV7-XpQhUj-59" value="开发环境" style="text;html=1;align=center;verticalAlign=middle;resizable=0;points=[];autosize=1;strokeColor=none;" vertex="1" parent="1">
          <mxGeometry x="1230" y="40" width="60" height="20" as="geometry" />
        </mxCell>
      </root>
    </mxGraphModel>
  </diagram>
</mxfile>
